<svg viewBox="0 0 100 100" xmlns="http://www.w3.org/2000/svg"><defs><clipPath id="g1"><circle cx="50" cy="50" r="39"/></clipPath></defs><circle cx="50" cy="50" r="39" fill="#B8965A"/><g clip-path="url(#g1)"><rect x="8" y="58" width="84" height="6.5" fill="#1A1A1A"/><path d="M6 71.5 Q50 66.5 94 71.5 L94 77.5 Q50 72.5 6 77.5 Z" fill="#1A1A1A"/><path d="M6 82.5 Q50 77.5 94 82.5 L94 88.5 Q50 83.5 6 88.5 Z" fill="#1A1A1A"/><path d="M6 93.5 Q50 88.5 94 93.5 L94 108 L6 108 Z" fill="#1A1A1A"/></g><path d="M17 27.5 Q50 17 83 27.5" stroke="#1A1A1A" stroke-width="5.8" fill="none" stroke-linecap="round"/><g transform="translate(27,23.3) rotate(-13)"><rect x="-2.3" y="-9" width="4.6" height="10" rx="1.6" fill="#1A1A1A"/></g><g transform="translate(38.5,21.39) rotate(-6)"><rect x="-2.3" y="-9" width="4.6" height="10" rx="1.6" fill="#1A1A1A"/></g><g transform="translate(50,20.75)"><rect x="-2.3" y="-9" width="4.6" height="10" rx="1.6" fill="#1A1A1A"/></g><g transform="translate(61.5,21.39) rotate(6)"><rect x="-2.3" y="-9" width="4.6" height="10" rx="1.6" fill="#1A1A1A"/></g><g transform="translate(73,23.3) rotate(13)"><rect x="-2.3" y="-9" width="4.6" height="10" rx="1.6" fill="#1A1A1A"/></g><rect x="32" y="27" width="7" height="33" fill="#1A1A1A"/><rect x="61" y="27" width="7" height="33" fill="#1A1A1A"/></svg>
